<svg width="1440" height="1024" viewBox="0 0 1440 1024" fill="none" xmlns="http://www.w3.org/2000/svg">
<g clip-path="url(#clip0)">
<rect width="1440" height="1024" fill="#F1F1F1"/>
<path d="M538.518 495.494C538.518 495.494 563.689 440.515 784.285 429.226C1004.88 417.937 1099.37 530.195 1030.59 580.787C1008.37 597.13 999.767 620.466 998.298 644.571C994.286 710.437 998.494 784.608 946.06 824.672C913.31 849.696 874.419 870.396 838.18 866.736C792.418 862.113 773.552 853.94 731.562 816.696C689.573 779.451 679.897 812.383 649.785 799.882C532.893 751.357 538.518 495.494 538.518 495.494Z" fill="#009494"/>
<path d="M538.518 467.268C538.518 467.268 563.689 412.289 784.285 401C1004.88 389.711 1099.37 501.969 1030.59 552.561C1008.37 568.904 999.767 592.24 998.298 616.345C994.286 682.211 998.494 756.382 946.06 796.446C913.31 821.47 874.419 842.17 838.18 838.509C792.418 833.887 773.552 825.714 731.562 788.47C689.573 751.225 679.897 784.157 649.785 771.656C532.893 723.131 538.518 467.268 538.518 467.268Z" fill="#00CCCC"/>
<path d="M-222.482 735.72C-222.482 735.72 -197.311 680.741 23.2852 669.452C243.882 658.163 338.37 770.421 269.59 821.013C247.372 837.357 238.767 860.692 237.298 884.797C233.286 950.663 237.494 1024.83 185.06 1064.9C152.31 1089.92 113.419 1110.62 77.1797 1106.96C31.418 1102.34 12.5517 1094.17 -29.4377 1056.92C-71.4271 1019.68 -81.1026 1052.61 -111.215 1040.11C-228.107 991.583 -222.482 735.72 -222.482 735.72Z" fill="#009494"/>
<path d="M-222.482 707.494C-222.482 707.494 -197.311 652.515 23.2852 641.226C243.882 629.937 338.37 742.195 269.59 792.787C247.372 809.13 238.767 832.466 237.298 856.571C233.286 922.437 237.494 996.608 185.06 1036.67C152.31 1061.7 113.419 1082.4 77.1797 1078.74C31.418 1074.11 12.5517 1065.94 -29.4377 1028.7C-71.4271 991.451 -81.1026 1024.38 -111.215 1011.88C-228.107 963.357 -222.482 707.494 -222.482 707.494Z" fill="#00CCCC"/>
<path d="M-189.482 -136.28C-189.482 -136.28 -164.311 -191.259 56.2852 -202.548C276.882 -213.837 371.37 -101.579 302.59 -50.9865C280.372 -34.6435 271.767 -11.3079 270.298 12.7973C266.286 78.6632 270.494 152.834 218.06 192.898C185.31 217.922 146.419 238.622 110.18 234.962C64.418 230.339 45.5517 222.166 3.56231 184.922C-38.4271 147.678 -48.1026 180.609 -78.2151 168.108C-195.107 119.583 -189.482 -136.28 -189.482 -136.28Z" fill="#009494"/>
<path d="M-189.482 -164.506C-189.482 -164.506 -164.311 -219.485 56.2852 -230.774C276.882 -242.063 371.37 -129.805 302.59 -79.2126C280.372 -62.8696 271.767 -39.5339 270.298 -15.4288C266.286 50.4372 270.494 124.608 218.06 164.672C185.31 189.696 146.419 210.396 110.18 206.736C64.418 202.113 45.5517 193.94 3.56231 156.696C-38.4271 119.451 -48.1026 152.383 -78.2151 139.882C-195.107 91.3569 -189.482 -164.506 -189.482 -164.506Z" fill="#00CCCC"/>
<path d="M1700.28 191.796C1700.28 191.796 1752.67 221.987 1743.33 442.675C1733.98 663.362 1613.4 746.964 1569.44 673.763C1555.24 650.117 1532.81 639.372 1508.95 635.661C1443.75 625.52 1369.51 622.789 1334.51 566.845C1312.65 531.904 1295.67 491.251 1302.7 455.511C1311.57 410.38 1321.47 392.359 1362.47 354.028C1403.47 315.697 1371.58 302.991 1386.84 274.176C1446.06 162.322 1700.28 191.796 1700.28 191.796Z" fill="#009494"/>
<path d="M1728.38 194.43C1728.38 194.43 1780.77 224.621 1771.43 445.308C1762.09 665.996 1641.5 749.598 1597.55 676.397C1583.35 652.751 1560.92 642.006 1537.05 638.295C1471.85 628.154 1397.61 625.422 1362.61 569.479C1340.75 534.537 1323.77 493.885 1330.8 458.145C1339.67 413.014 1349.57 394.993 1390.57 356.662C1431.57 318.331 1399.68 305.624 1414.94 276.81C1474.16 164.956 1728.38 194.43 1728.38 194.43Z" fill="#00CCCC"/>
</g>
<defs>
<clipPath id="clip0">
<rect width="1440" height="1024" fill="white"/>
</clipPath>
</defs>
</svg>
