<svg width="398" height="92" viewBox="0 0 398 92" fill="none" xmlns="http://www.w3.org/2000/svg">
<g filter="url(#filter0_d)">
<circle cx="42" cy="44" r="42" fill="#15614F"/>
<rect x="25.8659" y="21.945" width="5.39911" height="32.5173" rx="1" transform="rotate(-25.8769 25.8659 21.945)" fill="white"/>
<rect x="65.4141" y="29.2214" width="4.5051" height="13.509" rx="1" transform="rotate(-25.8769 65.4141 29.2214)" fill="white"/>
<rect x="61.1059" y="45.0803" width="4.48416" height="15.1363" rx="1" transform="rotate(-25.8769 61.1059 45.0803)" fill="white"/>
<rect x="42.5246" y="52.6444" width="5.18963" height="17.5252" rx="1" transform="rotate(-27.5035 42.5246 52.6444)" fill="white"/>
<rect x="55.2416" y="33.0848" width="4.52012" height="14.9631" rx="1" transform="rotate(-25.8769 55.2416 33.0848)" fill="white"/>
<path d="M30.1191 19.7404C30.5803 19.6521 31.0408 19.8965 31.2261 20.328L31.8142 21.6976C32.0662 22.2846 31.7108 22.9541 31.0834 23.0743L11.1857 26.886C10.7245 26.9743 10.264 26.7299 10.0787 26.2984L9.49063 24.9287C9.23861 24.3418 9.594 23.6722 10.2214 23.5521L30.1191 19.7404Z" fill="white"/>
<path d="M70.1643 55.7031C70.6644 55.4939 71.2401 55.7213 71.4623 56.2158L72.5976 58.7424C72.8322 59.2645 72.5814 59.8767 72.0479 60.0842L51.5315 68.0643C51.0168 68.2645 50.4372 68.0096 50.237 67.4949L49.4336 65.4293C49.2369 64.9237 49.4792 64.3535 49.9797 64.1442L70.1643 55.7031Z" fill="white"/>
<path d="M67.7074 25.7568C68.1866 25.579 68.7227 25.7912 68.9505 26.2488L69.7683 27.8919C70.0268 28.4113 69.7906 29.0409 69.2542 29.262L56.8832 34.3617C56.4131 34.5554 55.8724 34.3656 55.6267 33.9204L54.5015 31.8823C54.2059 31.347 54.4557 30.6742 55.029 30.4615L67.7074 25.7568Z" fill="white"/>
<rect x="9.48007" y="25.0566" width="5.27957" height="36.034" rx="1" transform="rotate(-25.8769 9.48007 25.0566)" fill="white"/>
<path d="M27.5982 60.1039C27.1173 60.3055 26.5624 60.1038 26.3231 59.6405L25.186 57.4385C24.9175 56.9186 25.1508 56.2802 25.6913 56.056L72.6631 36.5683C73.1397 36.3705 73.6884 36.5679 73.93 37.0238L75.0052 39.0536C75.2804 39.5731 75.0503 40.2168 74.5081 40.444L27.5982 60.1039Z" fill="white"/>
<path d="M113.838 58.167H130.684V62H109.126V26.4531H113.838V58.167ZM168.062 52.7227H153.169L149.824 62H144.99L158.564 26.4531H162.666L176.265 62H171.455L168.062 52.7227ZM154.585 48.8652H166.67L160.615 32.2393L154.585 48.8652ZM206.489 47.6201H198.14V62H193.428V26.4531H205.195C209.199 26.4531 212.275 27.3646 214.424 29.1875C216.589 31.0104 217.671 33.6634 217.671 37.1465C217.671 39.36 217.069 41.2887 215.864 42.9326C214.676 44.5765 213.016 45.8053 210.884 46.6191L219.233 61.707V62H214.204L206.489 47.6201ZM198.14 43.7871H205.342C207.669 43.7871 209.517 43.1849 210.884 41.9805C212.267 40.776 212.959 39.1647 212.959 37.1465C212.959 34.9492 212.3 33.2646 210.981 32.0928C209.679 30.9209 207.791 30.3268 205.317 30.3105H198.14V43.7871ZM256.294 52.7227H241.401L238.057 62H233.223L246.797 26.4531H250.898L264.497 62H259.688L256.294 52.7227ZM242.817 48.8652H254.902L248.848 32.2393L242.817 48.8652ZM293.452 55.7744L303.608 26.4531H308.735L295.552 62H291.401L278.242 26.4531H283.345L293.452 55.7744ZM346.016 45.5693H330.61V58.167H348.506V62H325.923V26.4531H348.262V30.3105H330.61V41.7363H346.016V45.5693ZM371.455 58.167H388.301V62H366.743V26.4531H371.455V58.167Z" fill="#18886E"/>
</g>
<defs>
<filter id="filter0_d" x="0" y="0" width="397.301" height="92" filterUnits="userSpaceOnUse" color-interpolation-filters="sRGB">
<feFlood flood-opacity="0" result="BackgroundImageFix"/>
<feColorMatrix in="SourceAlpha" type="matrix" values="0 0 0 0 0 0 0 0 0 0 0 0 0 0 0 0 0 0 127 0"/>
<feOffset dx="5" dy="2"/>
<feGaussianBlur stdDeviation="2"/>
<feColorMatrix type="matrix" values="0 0 0 0 0 0 0 0 0 0 0 0 0 0 0 0 0 0 0.25 0"/>
<feBlend mode="normal" in2="BackgroundImageFix" result="effect1_dropShadow"/>
<feBlend mode="normal" in="SourceGraphic" in2="effect1_dropShadow" result="shape"/>
</filter>
</defs>
</svg>
